<svg width="25" height="25" viewBox="0 0 25 25" fill="none" xmlns="http://www.w3.org/2000/svg">
<path d="M0 10.7239V0H11.1111V10.7239H0ZM4.16667 4.02145V6.70241H6.94444V4.02145H4.16667ZM13.8889 10.7239V0H25V10.7239H13.8889ZM18.0556 4.02145V6.70241H20.8333V4.02145H18.0556ZM0 13.4048V24.1287H11.1111V13.4048H0ZM6.94444 17.4263V20.1072H4.16667V17.4263H6.94444ZM18.0556 13.4048H13.8889V16.0858H18.0556V21.4477H16.6667V18.7668H13.8889V24.1287H19.4444V21.4477H22.2222V24.1287H25V20.1072H22.2222V18.7668H20.8333V17.4263H25V13.4048H20.8333V16.0858H18.0556V13.4048Z" fill="white"/>
</svg>
