<svg width="26" height="26" viewBox="0 0 26 26" fill="none" xmlns="http://www.w3.org/2000/svg">
<path fill-rule="evenodd" clip-rule="evenodd" d="M18.4063 16.6237L25.1313 23.3487C25.3676 23.5853 25.5004 23.906 25.5002 24.2404C25.5001 24.5748 25.3672 24.8955 25.1306 25.1319C24.8941 25.3682 24.5734 25.501 24.2389 25.5008C23.9045 25.5007 23.5839 25.3678 23.3475 25.1312L16.6225 18.4062C14.6122 19.9633 12.0841 20.6961 9.55267 20.4554C7.02123 20.2148 4.67656 19.0188 2.99562 17.1108C1.31468 15.2027 0.423753 12.726 0.50408 10.1844C0.584407 7.64284 1.62995 5.22731 3.42802 3.42924C5.22609 1.63117 7.64161 0.585627 10.1832 0.505301C12.7248 0.424974 15.2015 1.3159 17.1095 2.99684C19.0176 4.67778 20.2135 7.02246 20.4542 9.55389C20.6949 12.0853 19.9621 14.6134 18.405 16.6237H18.4063ZM10.5 18C12.4891 18 14.3968 17.2098 15.8033 15.8033C17.2098 14.3968 18 12.4891 18 10.5C18 8.51086 17.2098 6.60321 15.8033 5.19669C14.3968 3.79016 12.4891 2.99999 10.5 2.99999C8.51089 2.99999 6.60324 3.79016 5.19671 5.19669C3.79019 6.60321 3.00002 8.51086 3.00002 10.5C3.00002 12.4891 3.79019 14.3968 5.19671 15.8033C6.60324 17.2098 8.51089 18 10.5 18Z" fill="white"/>
</svg>
